<svg id="Layer_1" data-name="Layer 1" xmlns="http://www.w3.org/2000/svg" viewBox="0 0 459.53 215.38"><defs><style>.cls-1{fill:#020202;}.cls-2{isolation:isolate;}</style></defs><path class="cls-1" d="M115.62,2.22c1.1.13,2.2.29,3.3.39a105.12,105.12,0,0,1,61,25.48,105.82,105.82,0,0,1,35.32,59.2,104.56,104.56,0,0,1,2.12,30.35,106,106,0,0,1-29.23,66.27,2.77,2.77,0,0,0-.79,2.44,27,27,0,0,0,24,24.16c.91.11,1.83.07,2.74.13a3.49,3.49,0,1,1-.28,7,34,34,0,0,1-32.67-26.27c0-.1-.06-.2-.14-.43-.32.25-.6.45-.86.67a106.2,106.2,0,0,1-50.28,24.2,107.36,107.36,0,0,1-29,1.44A103.92,103.92,0,0,1,53,201.31c-24.8-15.83-40.88-38-47.9-66.68a101.57,101.57,0,0,1-2.65-18.11,2.92,2.92,0,0,0-.2-.68V104a2.92,2.92,0,0,0,.2-.68,105.36,105.36,0,0,1,3.63-22A107.7,107.7,0,0,1,100.79,2.62c1-.09,2-.27,3-.4ZM9.18,109.85c-.08,55.54,45.06,100.71,100.7,100.79,55.48.08,100.57-44.95,100.76-100.63C210.82,54.56,165.74,9.4,110,9.18,54.58,9,9.27,54.22,9.18,109.85Z" transform="translate(-2.22 -2.22)"/><path class="cls-1" d="M53.39,61a30.59,30.59,0,1,1-30.53,30.5A30.61,30.61,0,0,1,53.39,61Zm8.29,8.56a23.35,23.35,0,0,0-24.15,4.52,23.59,23.59,0,0,0-6.32,25.5c2.6,7.2,10.41,14.37,15.93,14.61A63,63,0,0,1,61.68,69.53ZM54.21,115.1A23.54,23.54,0,0,0,67.89,73C57.51,85.11,53,99.12,54.21,115.1Z" transform="translate(-2.22 -2.22)"/><path class="cls-1" d="M75.09,127.39A30.59,30.59,0,1,1,44.4,158,30.5,30.5,0,0,1,75.09,127.39Zm-18.52,16c-5.16,6-6.93,15.54-3.29,24a23.46,23.46,0,0,0,22,14.22c8.24-.16,14.63-3.8,19.5-10.55A64,64,0,0,1,56.57,143.34Zm41,21.18a23.45,23.45,0,0,0-35.79-26A56.69,56.69,0,0,0,97.59,164.52Z" transform="translate(-2.22 -2.22)"/><path class="cls-1" d="M110,20A30.57,30.57,0,1,1,79.35,50.37,30.57,30.57,0,0,1,110,20Zm23.59,31.61c0-9-3.44-16.22-11-20.94-8.56-5.33-17.4-5.2-25.81.37-7.21,4.77-10.5,11.8-10.44,20.57A63.82,63.82,0,0,1,133.55,51.56Zm-1.45,6.95a56.36,56.36,0,0,0-44.33,0,23.54,23.54,0,0,0,44.33,0Z" transform="translate(-2.22 -2.22)"/><path class="cls-1" d="M144.78,188.54a30.57,30.57,0,1,1,30.61-30.23A30.55,30.55,0,0,1,144.78,188.54Zm18.5-45.37A64,64,0,0,1,125,171c5.08,7,11.78,10.65,20.38,10.58A23.33,23.33,0,0,0,166.61,167C170,158.53,168.74,150.59,163.28,143.17Zm-5.22-4.7a23.5,23.5,0,0,0-35.83,26.05A56.66,56.66,0,0,0,158.06,138.47Z" transform="translate(-2.22 -2.22)"/><path class="cls-1" d="M166.52,61a30.57,30.57,0,1,1-30.69,29.92C136,74.5,150,60.84,166.52,61ZM152.1,72.77a23.68,23.68,0,0,0-7.61,27.61,23.22,23.22,0,0,0,21.09,14.69c0-.58.11-1.16.15-1.74A57.67,57.67,0,0,0,164,95.49a3.5,3.5,0,0,1,2.5-4.61c1.88-.46,3.65.74,4.21,2.88a64.29,64.29,0,0,1,2,19.58c0,.3,0,.6,0,1,9.19-3.06,15.09-9.09,16.83-18.49s-1.35-17.34-8.95-23.17c-6.77-5.18-14.37-6-22.53-3.3.26.34.44.56.6.79,1.92,2.76,3.9,5.48,5.72,8.31a3.4,3.4,0,0,1-1.87,5.15,3.61,3.61,0,0,1-4.2-1.78C156.29,78.86,154.21,75.87,152.1,72.77Z" transform="translate(-2.22 -2.22)"/><path class="cls-1" d="M110,91.86a18.05,18.05,0,1,1-18.1,18A18,18,0,0,1,110,91.86ZM121,109.64a11.15,11.15,0,0,0-11.35-10.85c-6.28.28-11.19,5.45-10.87,11.44.34,6.25,5.47,11.11,11.4,10.79A11.15,11.15,0,0,0,121,109.64Z" transform="translate(-2.22 -2.22)"/><g class="cls-2"><g class="cls-2"><path d="M255.43,108.6a4.87,4.87,0,0,1-2.92.76,3.46,3.46,0,0,1-2.48-.86,2.85,2.85,0,0,1-1-1.8,69.62,69.62,0,0,0,.43-9.08q0-3.6-.43-11.08-.51-7.07-.51-12.53,0-3,.29-6.05A3.21,3.21,0,0,1,250,65.8a5.63,5.63,0,0,1,3.28-1.44,164.11,164.11,0,0,1,16.77-.72h2.31a14.14,14.14,0,0,1,5.07.94A3.31,3.31,0,0,1,280,67.82a3.59,3.59,0,0,1-.72,2.37,3.34,3.34,0,0,1-2.67.87,18.11,18.11,0,0,1-2.16-.15l-1.73-.21a29.1,29.1,0,0,0-4.24-.44,51.33,51.33,0,0,0-12.6,1.16c0,1.58,0,4.15.14,7.7l.07,4.61a60.86,60.86,0,0,0,6.7-.33c2-.21,3.09-.34,3.38-.39,2.5-.29,4.15-.43,5-.43a5.4,5.4,0,0,1,2.92.75,2.59,2.59,0,0,1,1.18,2.34q0,3.6-5,3.6c-.81,0-1.53,0-2.16.07l-1.58.15a40.08,40.08,0,0,1-4.1.29c-2.21,0-4.08.07-5.62.21,0,1.78.07,3.65.22,5.62,0,.62,0,1.58.1,2.88s.11,2.47.11,3.53,0,1.75-.07,2.52a11.79,11.79,0,0,1-.36,2.23A3,3,0,0,1,255.43,108.6Z" transform="translate(-2.22 -2.22)"/></g><g class="cls-2"><path d="M312.74,108.57a5.89,5.89,0,0,1-3.13,1.08,11.31,11.31,0,0,1-4.35-.69,7.26,7.26,0,0,1-3-2.55,12.15,12.15,0,0,1-5.11,2.48,24.43,24.43,0,0,1-6,.83,11,11,0,0,1-7.34-2.41Q281,104.9,281,100.22A6.75,6.75,0,0,1,282,96.51a10.47,10.47,0,0,1,2.95-3,17,17,0,0,1,4.75-2.12,20,20,0,0,1,5.54-.76,13.61,13.61,0,0,1,3.6.58,14.49,14.49,0,0,1,3.24,1.22V91.29q0-3.89-1.87-5.37c-1.25-1-3.26-1.47-6.05-1.47a6.23,6.23,0,0,0-2.41.5,26.56,26.56,0,0,0-2.7,1.37,8.08,8.08,0,0,1-3.81,1.08c-.44,0-.84-.3-1.23-.9a3.11,3.11,0,0,1-.57-1.62,4.44,4.44,0,0,1,2-3.6A13.76,13.76,0,0,1,290.17,79a18.81,18.81,0,0,1,4.9-.75,17.94,17.94,0,0,1,5,.82,13.46,13.46,0,0,1,4.6,2.27A13.31,13.31,0,0,1,308,85.71a12.44,12.44,0,0,1,1.19,5.43c0,.63-.05,1.56-.14,2.81s-.15,2.5-.15,3.46c0,.43-.05,1.08-.14,1.94q-.15,1.59-.15,2.52a2,2,0,0,0,.65,1.48,2.12,2.12,0,0,0,1.51.61l2-.07a1.43,1.43,0,0,1,1.22.57,2.35,2.35,0,0,1,.44,1.44A3.14,3.14,0,0,1,312.74,108.57Zm-16.3-5.19a25.3,25.3,0,0,0,5-2.37,17.82,17.82,0,0,0,.36-3.24,16.17,16.17,0,0,0-6.56-1.87A12.22,12.22,0,0,0,290,97a3.86,3.86,0,0,0-2.31,3.81,2.89,2.89,0,0,0,1.16,2.31,3.73,3.73,0,0,0,2.37.93A17.51,17.51,0,0,0,296.44,103.38Z" transform="translate(-2.22 -2.22)"/><path d="M327.25,64.47a3.64,3.64,0,0,1,1.87,3.35,3,3,0,0,1-1.54,2.62,6.84,6.84,0,0,1-3.71,1A3.35,3.35,0,0,1,321,70.34a3.73,3.73,0,0,1-.79-2.24,11.89,11.89,0,0,1,.46-3.6,2,2,0,0,1,2.2-1.36A10,10,0,0,1,327.25,64.47ZM328.62,95v2.09c0,1.87.06,3.64.18,5.29s.28,3.33.47,5a1.9,1.9,0,0,1-1,1.54,3.38,3.38,0,0,1-1.87.69,7.66,7.66,0,0,1-2.77-.54,2.71,2.71,0,0,1-1.7-1.33,23.36,23.36,0,0,1-.43-4.11q0-5.9-.36-13.25-.28-6.48-.29-9.07a2.72,2.72,0,0,1,1.3-2.23,4.63,4.63,0,0,1,2.74-.94,3.76,3.76,0,0,1,2.91.94,4.39,4.39,0,0,1,.83,2.95Z" transform="translate(-2.22 -2.22)"/><path d="M337.62,84.45a2.54,2.54,0,0,1-2.23-2.59,2.64,2.64,0,0,1,.25-1.08,2.75,2.75,0,0,1,.76-1c.62-.62,2.3-.94,5-.94a28.53,28.53,0,0,0,.57-5.69c0-.72,0-1.34-.07-1.87s-.07-.93-.07-1.22a2.65,2.65,0,0,1,1.19-2.38,4.73,4.73,0,0,1,2.7-.79,3,3,0,0,1,2.55.94,6.14,6.14,0,0,1,.69,3.45,41.6,41.6,0,0,1-.65,7.35c.76,0,1.82-.05,3.17-.15,1.82-.09,3.14-.14,4-.14a3.67,3.67,0,0,1,2.12.61,1.94,1.94,0,0,1,.9,1.69A3,3,0,0,1,356,83.94a42.57,42.57,0,0,1-8.28.8c-.14,1.87-.22,3.91-.22,6.12a45.68,45.68,0,0,0,.65,8.49,6.3,6.3,0,0,0,1.48,3.35,4.22,4.22,0,0,0,3.13,1,5.64,5.64,0,0,0,2.52-.64,3.17,3.17,0,0,1,1.58-.51,1.71,1.71,0,0,1,1.48.65,2.91,2.91,0,0,1,.47,1.73,3.9,3.9,0,0,1-2.16,3.35,10.51,10.51,0,0,1-5.55,1.33,9.81,9.81,0,0,1-4.21-1,11.89,11.89,0,0,1-3.56-2.52,6.91,6.91,0,0,1-.79-1.66,25.44,25.44,0,0,1-1-3.09,48.37,48.37,0,0,1-.72-9.51c0-1.77.09-4.15.29-7.12Z" transform="translate(-2.22 -2.22)"/></g><g class="cls-2"><path d="M292.58,151.59c1,.89,1.48,1.64,1.48,2.27q0,4.38-.29,12c0,1.25-.1,2.75-.14,4.5s-.08,3.78-.08,6.08q0,10.95,1.3,16.13a2.81,2.81,0,0,1-1.37,2.49,5.13,5.13,0,0,1-2.59.75q-2.88,0-3.78-2a14.62,14.62,0,0,1-.9-5.76q0-13.91.29-25.56-8.28,9.21-12.89,15.48l-1.3.86a3.43,3.43,0,0,1-2,1.08,4.93,4.93,0,0,1-3.1-.94,10.25,10.25,0,0,1-2.37-2.73l-3.46-4.9q-3.6-5-5.26-7.63,0,6.63.65,18,.51,6.56.51,9.86a4.79,4.79,0,0,1-.87,2.92,3.15,3.15,0,0,1-2.73,1.19,5.82,5.82,0,0,1-3.06-.72,2.49,2.49,0,0,1-1.26-2.16c0-.82.07-2.16.07-4q0-5.62-.36-13.68l-.15-3.89-.14-5c-.05-1.49-.1-3.23-.14-5.22s-.08-4.17-.08-6.52q0-4.32,4.68-4.32a6.62,6.62,0,0,1,2.92.72,4.8,4.8,0,0,1,2.2,2.09q.57,2.52,4.24,8.35t7.2,10.95a70.48,70.48,0,0,1,5.19-6.05,67.64,67.64,0,0,0,5.72-6.55q2.26-3,4.93-7.28a5.32,5.32,0,0,1,1.88-1.47,5.67,5.67,0,0,1,2.59-.61A4.13,4.13,0,0,1,292.58,151.59Z" transform="translate(-2.22 -2.22)"/><path d="M334.85,195a6,6,0,0,1-3.14,1.08,11.31,11.31,0,0,1-4.35-.69,7.26,7.26,0,0,1-3-2.55,12.15,12.15,0,0,1-5.11,2.48,24.36,24.36,0,0,1-6,.83,11,11,0,0,1-7.34-2.41q-2.88-2.42-2.88-7.09a6.75,6.75,0,0,1,1.08-3.71,10.47,10.47,0,0,1,2.95-3,17.13,17.13,0,0,1,4.75-2.12,20,20,0,0,1,5.55-.76,13.73,13.73,0,0,1,3.6.58,14.89,14.89,0,0,1,3.24,1.22v-1.15q0-3.88-1.88-5.37t-6-1.47a6.28,6.28,0,0,0-2.42.5,26.56,26.56,0,0,0-2.7,1.37,8.08,8.08,0,0,1-3.81,1.08q-.64,0-1.23-.9a3.11,3.11,0,0,1-.57-1.62,4.44,4.44,0,0,1,2-3.6,13.76,13.76,0,0,1,4.71-2.27,18.81,18.81,0,0,1,4.9-.75,17.88,17.88,0,0,1,5,.82,13.61,13.61,0,0,1,4.61,2.27,13.28,13.28,0,0,1,3.34,4.36,12.3,12.3,0,0,1,1.19,5.43c0,.63,0,1.56-.14,2.81s-.15,2.5-.15,3.46a17.83,17.83,0,0,1-.14,1.94c-.1,1.06-.14,1.9-.14,2.52a2,2,0,0,0,.64,1.48,2.15,2.15,0,0,0,1.52.61l2-.07a1.46,1.46,0,0,1,1.23.57,2.41,2.41,0,0,1,.43,1.44A3.15,3.15,0,0,1,334.85,195Zm-16.31-5.19a25.3,25.3,0,0,0,5-2.37,17.82,17.82,0,0,0,.36-3.24,16.18,16.18,0,0,0-6.55-1.87,12.27,12.27,0,0,0-5.26,1.08,3.85,3.85,0,0,0-2.3,3.81A2.88,2.88,0,0,0,311,189.5a3.75,3.75,0,0,0,2.37.93A17.51,17.51,0,0,0,318.54,189.78Z" transform="translate(-2.22 -2.22)"/><path d="M349.35,150.87a3.65,3.65,0,0,1,1.88,3.35,3,3,0,0,1-1.55,2.62,6.84,6.84,0,0,1-3.71,1,3.36,3.36,0,0,1-2.88-1.08,3.73,3.73,0,0,1-.79-2.24,11.56,11.56,0,0,1,.47-3.6,1.94,1.94,0,0,1,2.19-1.36A10,10,0,0,1,349.35,150.87Zm1.37,30.56v2.09c0,1.87.06,3.64.18,5.29s.28,3.33.47,5a1.9,1.9,0,0,1-1,1.54,3.36,3.36,0,0,1-1.87.69,7.66,7.66,0,0,1-2.77-.54,2.66,2.66,0,0,1-1.69-1.33,22.53,22.53,0,0,1-.44-4.11q0-5.9-.36-13.25-.28-6.48-.28-9.07a2.71,2.71,0,0,1,1.29-2.23,4.65,4.65,0,0,1,2.74-.94,3.76,3.76,0,0,1,2.91.94,4.39,4.39,0,0,1,.83,2.95Z" transform="translate(-2.22 -2.22)"/><path d="M382.15,180.89a5.2,5.2,0,0,1,2.27,2.27,9.14,9.14,0,0,1,.57,3.6,7.3,7.3,0,0,1-1.51,4.57,10,10,0,0,1-3.89,3.06,17.15,17.15,0,0,1-4.21,1.23,25.21,25.21,0,0,1-3.92.43,21.39,21.39,0,0,1-3.71-.43,18,18,0,0,1-3.13-.8,15.08,15.08,0,0,1-3.86-3.16,5.81,5.81,0,0,1-1.61-3.82,2.88,2.88,0,0,1,.93-2.27,3.56,3.56,0,0,1,2.45-.83,2.71,2.71,0,0,1,1.51.54,3.13,3.13,0,0,1,1.08,1.12,5.45,5.45,0,0,0,2.67,2.81,8.43,8.43,0,0,0,3.81.93,13,13,0,0,0,4.68-.82c1.44-.56,2.16-1.31,2.16-2.27a1.66,1.66,0,0,0-.32-1.05,5.3,5.3,0,0,0-.9-.82,8.69,8.69,0,0,0-3-1.19l-2.59-.61a28.14,28.14,0,0,1-5.76-1.95,14,14,0,0,1-4.46-3.24,7,7,0,0,1-1.66-4.82,7.31,7.31,0,0,1,1.44-4.07,8.42,8.42,0,0,1,3.24-3,28.75,28.75,0,0,1,4.36-1.08,27.92,27.92,0,0,1,4.14-.57,21.61,21.61,0,0,1,3.6.32,7.21,7.21,0,0,1,2.95,1,15.29,15.29,0,0,1,3.17,2.42,4,4,0,0,1,1.22,2.84,4.55,4.55,0,0,1-.36,1.69,1.94,1.94,0,0,1-.86,1.12,6,6,0,0,1-2.52.5,1.52,1.52,0,0,1-1.05-.36,11.43,11.43,0,0,1-1-1.15,3.16,3.16,0,0,0-1.51-1.44q-.87-.21-2.52-.54a13.92,13.92,0,0,0-2.23-.32,7.28,7.28,0,0,0-3.42.93q-1.77.94-1.77,2.16a1.15,1.15,0,0,0,.54,1,8.55,8.55,0,0,0,1.15.65c.41.19.69.31.83.36a19.93,19.93,0,0,0,3.35,1.22c1.22.34,2,.55,2.27.65a18.06,18.06,0,0,1,5.18,1.8C380.26,179.8,381,180.24,382.15,180.89Z" transform="translate(-2.22 -2.22)"/><path d="M421.06,175.56a18.79,18.79,0,0,1,.36,3.42,24.42,24.42,0,0,1-.64,5,28.24,28.24,0,0,1-1.08,4q-3.9,8.07-15,8.07a12,12,0,0,1-6.91-2.34A13.58,13.58,0,0,1,393,188.2l-.5-1.44c-.05-.19-.3-.92-.76-2.2a9.63,9.63,0,0,1-.68-2.91,20.07,20.07,0,0,1,1.44-6.84,21.72,21.72,0,0,1,3.31-6.19,9.58,9.58,0,0,1,4.68-2.85,19.27,19.27,0,0,1,6.12-1.19,15.22,15.22,0,0,1,8,1.88,16.53,16.53,0,0,1,5.51,6.19A9.74,9.74,0,0,1,421.06,175.56ZM414,182.44a19.06,19.06,0,0,0,.21-3,11.71,11.71,0,0,0-.75-4.11,9.67,9.67,0,0,0-2.2-3.45,1.74,1.74,0,0,0-.5-.47,5.33,5.33,0,0,0-1.37-.65,7.28,7.28,0,0,0-2.38-.32,7.1,7.1,0,0,0-4.75,1.65,10.26,10.26,0,0,0-2.91,4.11,13,13,0,0,0-1,4.82,16.42,16.42,0,0,0,.44,2.66,23.71,23.71,0,0,0,.64,2.6,9.36,9.36,0,0,0,2.24,2.34,5.84,5.84,0,0,0,3.74,1.33,7.83,7.83,0,0,0,5.08-1.51,10.82,10.82,0,0,0,3-4.18A6,6,0,0,0,414,182.44Z" transform="translate(-2.22 -2.22)"/><path d="M426.82,169.52a2.94,2.94,0,0,1-.36-1.7,2.53,2.53,0,0,1,1-2.12,3.58,3.58,0,0,1,2.26-.76,7.39,7.39,0,0,1,4.36,1.3,7.5,7.5,0,0,1,2.7,3.6,8.86,8.86,0,0,1,4-4.07,16.75,16.75,0,0,1,6.77-1.11,7.13,7.13,0,0,1,3.56,1,15.67,15.67,0,0,1,3.35,2.56,14.6,14.6,0,0,1,2.09,3.92,12.19,12.19,0,0,1,.86,4.21c0,.72,0,1.9-.14,3.53s-.14,3.1-.14,4.1c0,3.36.64,5.43,1.94,6.2a8.12,8.12,0,0,0,1.08.36,5.37,5.37,0,0,1,1.19.43.69.69,0,0,1,.39.65,3.33,3.33,0,0,1-1.26,2.84,4.82,4.82,0,0,1-3.2,1.12,6.09,6.09,0,0,1-4.39-1.52,8.58,8.58,0,0,1-2.23-4.6,12.09,12.09,0,0,1-.36-3.39c0-.81,0-2.13.14-4,.14-1.44.22-3,.22-4.61a7.12,7.12,0,0,0-1.44-4.42,4.67,4.67,0,0,0-4-1.91,6.63,6.63,0,0,0-3.17.9,5.29,5.29,0,0,0-2.31,2.19,16.08,16.08,0,0,0-1.44,4.54,45.6,45.6,0,0,0-.86,8.57c0,.67,0,2,.14,3.89v1a6.4,6.4,0,0,1-.18,1.55,3.49,3.49,0,0,1-.61,1.29,2.89,2.89,0,0,1-1.08.58,4.16,4.16,0,0,1-1.37.29,5.39,5.39,0,0,1-2.52-.87,3.47,3.47,0,0,1-1.8-1.94l-.07-1a14.81,14.81,0,0,1,.15-1.73,53.43,53.43,0,0,0,.86-8.78c0-1.1,0-1.94-.07-2.52l-.07-3.31A5.48,5.48,0,0,0,430,173a10.46,10.46,0,0,0-2.23-2.55A5.08,5.08,0,0,1,426.82,169.52Z" transform="translate(-2.22 -2.22)"/></g></g></svg>